<mxfile host="app.diagrams.net" modified="2021-06-14T20:00:24.280Z" agent="5.0 (X11)" etag="aZ6KB9RyLEdxgNfPqfrH" version="14.7.6" type="github">
  <diagram id="JxIQJfUGfMaZ3-vrhAbu" name="Page-1">
    <mxGraphModel dx="1400" dy="824" grid="1" gridSize="10" guides="1" tooltips="1" connect="1" arrows="1" fold="1" page="1" pageScale="1" pageWidth="827" pageHeight="1169" math="0" shadow="0">
      <root>
        <mxCell id="0" />
        <mxCell id="1" parent="0" />
        <mxCell id="jEa4D9O93qdSq7KKz5Td-61" value="" style="rounded=0;whiteSpace=wrap;html=1;" parent="1" vertex="1">
          <mxGeometry x="220" y="10" width="400" height="820" as="geometry" />
        </mxCell>
        <mxCell id="jEa4D9O93qdSq7KKz5Td-1" value="Usuario&lt;br&gt;" style="shape=umlActor;verticalLabelPosition=bottom;verticalAlign=top;html=1;outlineConnect=0;" parent="1" vertex="1">
          <mxGeometry x="70" y="400" width="30" height="60" as="geometry" />
        </mxCell>
        <mxCell id="jEa4D9O93qdSq7KKz5Td-5" value="" style="ellipse;whiteSpace=wrap;html=1;fontStyle=1" parent="1" vertex="1">
          <mxGeometry x="354" y="180" width="120" height="80" as="geometry" />
        </mxCell>
        <mxCell id="jEa4D9O93qdSq7KKz5Td-6" value="&lt;div&gt;&lt;span style=&quot;font-weight: normal&quot;&gt;Incluir/excluir/editar&lt;/span&gt;&lt;/div&gt;&lt;div&gt;&lt;span style=&quot;font-weight: normal&quot;&gt; atividades&lt;/span&gt;&lt;/div&gt;" style="text;html=1;strokeColor=none;fillColor=none;align=center;verticalAlign=middle;whiteSpace=wrap;rounded=0;fontStyle=1" parent="1" vertex="1">
          <mxGeometry x="394" y="210" width="40" height="20" as="geometry" />
        </mxCell>
        <mxCell id="jEa4D9O93qdSq7KKz5Td-9" value="" style="ellipse;whiteSpace=wrap;html=1;" parent="1" vertex="1">
          <mxGeometry x="260" y="50" width="120" height="80" as="geometry" />
        </mxCell>
        <mxCell id="jEa4D9O93qdSq7KKz5Td-10" value="&lt;div&gt;Incluir/editar/excluir Disciplinas&lt;/div&gt;" style="text;html=1;strokeColor=none;fillColor=none;align=center;verticalAlign=middle;whiteSpace=wrap;rounded=0;" parent="1" vertex="1">
          <mxGeometry x="300" y="80" width="40" height="20" as="geometry" />
        </mxCell>
        <mxCell id="jEa4D9O93qdSq7KKz5Td-17" value="" style="ellipse;whiteSpace=wrap;html=1;" parent="1" vertex="1">
          <mxGeometry x="385" y="290" width="120" height="80" as="geometry" />
        </mxCell>
        <mxCell id="jEa4D9O93qdSq7KKz5Td-18" value="Exibir Atividades" style="text;html=1;strokeColor=none;fillColor=none;align=center;verticalAlign=middle;whiteSpace=wrap;rounded=0;" parent="1" vertex="1">
          <mxGeometry x="420" y="320" width="50" height="20" as="geometry" />
        </mxCell>
        <mxCell id="jEa4D9O93qdSq7KKz5Td-19" value="" style="ellipse;whiteSpace=wrap;html=1;" parent="1" vertex="1">
          <mxGeometry x="355" y="450" width="120" height="80" as="geometry" />
        </mxCell>
        <mxCell id="jEa4D9O93qdSq7KKz5Td-20" value="Exibir Disciplinas" style="text;html=1;strokeColor=none;fillColor=none;align=center;verticalAlign=middle;whiteSpace=wrap;rounded=0;" parent="1" vertex="1">
          <mxGeometry x="385" y="480" width="50" height="20" as="geometry" />
        </mxCell>
        <mxCell id="jEa4D9O93qdSq7KKz5Td-21" value="" style="ellipse;whiteSpace=wrap;html=1;" parent="1" vertex="1">
          <mxGeometry x="434" y="720" width="120" height="80" as="geometry" />
        </mxCell>
        <mxCell id="jEa4D9O93qdSq7KKz5Td-22" value="&lt;div&gt;Exibir Niveis&amp;nbsp; Experiencia&lt;/div&gt;" style="text;html=1;strokeColor=none;fillColor=none;align=center;verticalAlign=middle;whiteSpace=wrap;rounded=0;" parent="1" vertex="1">
          <mxGeometry x="474" y="750" width="50" height="20" as="geometry" />
        </mxCell>
        <mxCell id="jEa4D9O93qdSq7KKz5Td-23" value="" style="ellipse;whiteSpace=wrap;html=1;" parent="1" vertex="1">
          <mxGeometry x="293" y="550" width="120" height="80" as="geometry" />
        </mxCell>
        <mxCell id="jEa4D9O93qdSq7KKz5Td-24" value="Exibir Trofeus" style="text;html=1;strokeColor=none;fillColor=none;align=center;verticalAlign=middle;whiteSpace=wrap;rounded=0;" parent="1" vertex="1">
          <mxGeometry x="328" y="584" width="50" height="20" as="geometry" />
        </mxCell>
        <mxCell id="jEa4D9O93qdSq7KKz5Td-25" value="" style="ellipse;whiteSpace=wrap;html=1;" parent="1" vertex="1">
          <mxGeometry x="270" y="710" width="120" height="80" as="geometry" />
        </mxCell>
        <mxCell id="jEa4D9O93qdSq7KKz5Td-26" value="Exibir Perfil" style="text;html=1;strokeColor=none;fillColor=none;align=center;verticalAlign=middle;whiteSpace=wrap;rounded=0;" parent="1" vertex="1">
          <mxGeometry x="305" y="750" width="50" height="20" as="geometry" />
        </mxCell>
        <mxCell id="jEa4D9O93qdSq7KKz5Td-27" value="" style="ellipse;whiteSpace=wrap;html=1;" parent="1" vertex="1">
          <mxGeometry x="385" y="90" width="120" height="80" as="geometry" />
        </mxCell>
        <mxCell id="jEa4D9O93qdSq7KKz5Td-28" value="Exibir Categorias" style="text;html=1;strokeColor=none;fillColor=none;align=center;verticalAlign=middle;whiteSpace=wrap;rounded=0;" parent="1" vertex="1">
          <mxGeometry x="414" y="120" width="50" height="20" as="geometry" />
        </mxCell>
        <mxCell id="jEa4D9O93qdSq7KKz5Td-29" value="" style="ellipse;whiteSpace=wrap;html=1;" parent="1" vertex="1">
          <mxGeometry x="305" y="355" width="120" height="80" as="geometry" />
        </mxCell>
        <mxCell id="jEa4D9O93qdSq7KKz5Td-30" value="Incluir/editar/excluir categorias" style="text;html=1;strokeColor=none;fillColor=none;align=center;verticalAlign=middle;whiteSpace=wrap;rounded=0;" parent="1" vertex="1">
          <mxGeometry x="340" y="390" width="50" height="10" as="geometry" />
        </mxCell>
        <mxCell id="jEa4D9O93qdSq7KKz5Td-44" value="" style="endArrow=none;html=1;entryX=0;entryY=1;entryDx=0;entryDy=0;" parent="1" target="jEa4D9O93qdSq7KKz5Td-9" edge="1">
          <mxGeometry width="50" height="50" relative="1" as="geometry">
            <mxPoint x="120" y="420" as="sourcePoint" />
            <mxPoint x="200" y="100" as="targetPoint" />
          </mxGeometry>
        </mxCell>
        <mxCell id="jEa4D9O93qdSq7KKz5Td-48" value="" style="endArrow=none;html=1;entryX=0.019;entryY=0.617;entryDx=0;entryDy=0;entryPerimeter=0;" parent="1" target="jEa4D9O93qdSq7KKz5Td-5" edge="1">
          <mxGeometry width="50" height="50" relative="1" as="geometry">
            <mxPoint x="120" y="420" as="sourcePoint" />
            <mxPoint x="350" y="150" as="targetPoint" />
          </mxGeometry>
        </mxCell>
        <mxCell id="jEa4D9O93qdSq7KKz5Td-53" value="" style="endArrow=none;html=1;" parent="1" source="jEa4D9O93qdSq7KKz5Td-29" edge="1">
          <mxGeometry width="50" height="50" relative="1" as="geometry">
            <mxPoint x="240" y="390" as="sourcePoint" />
            <mxPoint x="120" y="420" as="targetPoint" />
          </mxGeometry>
        </mxCell>
        <mxCell id="jEa4D9O93qdSq7KKz5Td-56" value="" style="endArrow=none;html=1;entryX=1;entryY=0.5;entryDx=0;entryDy=0;" parent="1" target="jEa4D9O93qdSq7KKz5Td-19" edge="1">
          <mxGeometry width="50" height="50" relative="1" as="geometry">
            <mxPoint x="670" y="430" as="sourcePoint" />
            <mxPoint x="320" y="370" as="targetPoint" />
          </mxGeometry>
        </mxCell>
        <mxCell id="jEa4D9O93qdSq7KKz5Td-57" value="" style="endArrow=none;html=1;entryX=1;entryY=0.5;entryDx=0;entryDy=0;" parent="1" target="jEa4D9O93qdSq7KKz5Td-23" edge="1">
          <mxGeometry width="50" height="50" relative="1" as="geometry">
            <mxPoint x="670" y="430" as="sourcePoint" />
            <mxPoint x="330" y="380" as="targetPoint" />
          </mxGeometry>
        </mxCell>
        <mxCell id="jEa4D9O93qdSq7KKz5Td-58" value="" style="endArrow=none;html=1;exitX=1;exitY=0;exitDx=0;exitDy=0;" parent="1" source="jEa4D9O93qdSq7KKz5Td-25" edge="1">
          <mxGeometry width="50" height="50" relative="1" as="geometry">
            <mxPoint x="290" y="440" as="sourcePoint" />
            <mxPoint x="670" y="430" as="targetPoint" />
          </mxGeometry>
        </mxCell>
        <mxCell id="jEa4D9O93qdSq7KKz5Td-59" value="" style="endArrow=none;html=1;entryX=0.785;entryY=0.018;entryDx=0;entryDy=0;entryPerimeter=0;" parent="1" target="jEa4D9O93qdSq7KKz5Td-21" edge="1">
          <mxGeometry width="50" height="50" relative="1" as="geometry">
            <mxPoint x="670" y="430" as="sourcePoint" />
            <mxPoint x="350" y="400" as="targetPoint" />
          </mxGeometry>
        </mxCell>
        <mxCell id="jEa4D9O93qdSq7KKz5Td-62" value="Sistema" style="text;html=1;strokeColor=none;fillColor=none;align=center;verticalAlign=middle;whiteSpace=wrap;rounded=0;" parent="1" vertex="1">
          <mxGeometry x="400" y="20" width="40" height="20" as="geometry" />
        </mxCell>
        <mxCell id="mGPEmjQoEJWv48vIC8pO-1" value="" style="ellipse;whiteSpace=wrap;html=1;" vertex="1" parent="1">
          <mxGeometry x="480" y="30" width="120" height="80" as="geometry" />
        </mxCell>
        <mxCell id="mGPEmjQoEJWv48vIC8pO-2" value="Exibir o Calendario" style="text;html=1;strokeColor=none;fillColor=none;align=center;verticalAlign=middle;whiteSpace=wrap;rounded=0;" vertex="1" parent="1">
          <mxGeometry x="515" y="60" width="50" height="20" as="geometry" />
        </mxCell>
        <mxCell id="mGPEmjQoEJWv48vIC8pO-5" value="Sistema" style="shape=umlActor;verticalLabelPosition=bottom;verticalAlign=top;html=1;" vertex="1" parent="1">
          <mxGeometry x="720" y="390" width="30" height="60" as="geometry" />
        </mxCell>
        <mxCell id="mGPEmjQoEJWv48vIC8pO-8" value="" style="endArrow=none;html=1;entryX=0.961;entryY=0.326;entryDx=0;entryDy=0;entryPerimeter=0;" edge="1" parent="1" target="jEa4D9O93qdSq7KKz5Td-17">
          <mxGeometry width="50" height="50" relative="1" as="geometry">
            <mxPoint x="670" y="430" as="sourcePoint" />
            <mxPoint x="400" y="659.9999999999995" as="targetPoint" />
          </mxGeometry>
        </mxCell>
        <mxCell id="mGPEmjQoEJWv48vIC8pO-9" value="" style="endArrow=none;html=1;entryX=1;entryY=1;entryDx=0;entryDy=0;" edge="1" parent="1" target="mGPEmjQoEJWv48vIC8pO-1">
          <mxGeometry width="50" height="50" relative="1" as="geometry">
            <mxPoint x="670" y="430" as="sourcePoint" />
            <mxPoint x="410" y="669.9999999999995" as="targetPoint" />
          </mxGeometry>
        </mxCell>
        <mxCell id="mGPEmjQoEJWv48vIC8pO-10" value="" style="endArrow=none;html=1;entryX=0.968;entryY=0.701;entryDx=0;entryDy=0;entryPerimeter=0;" edge="1" parent="1" target="jEa4D9O93qdSq7KKz5Td-27">
          <mxGeometry width="50" height="50" relative="1" as="geometry">
            <mxPoint x="670" y="430" as="sourcePoint" />
            <mxPoint x="420" y="679.9999999999995" as="targetPoint" />
          </mxGeometry>
        </mxCell>
        <mxCell id="mGPEmjQoEJWv48vIC8pO-14" value="" style="endArrow=none;html=1;" edge="1" parent="1">
          <mxGeometry width="50" height="50" relative="1" as="geometry">
            <mxPoint x="670" y="430" as="sourcePoint" />
            <mxPoint x="710" y="430" as="targetPoint" />
          </mxGeometry>
        </mxCell>
      </root>
    </mxGraphModel>
  </diagram>
</mxfile>
